<?xml version="1.0" encoding="UTF-8"?>
<svg version="1.1" xmlns="http://www.w3.org/2000/svg" width="337" height="335">
<path d="M0 0 C1.15086594 -0.00855011 1.15086594 -0.00855011 2.32498169 -0.01727295 C3.94352875 -0.02666225 5.56209441 -0.03323256 7.18066406 -0.03710938 C9.59216186 -0.04671311 12.00276761 -0.07775146 14.4140625 -0.109375 C57.10108472 -0.39832625 96.61514321 17.74727424 127.7578125 46.203125 C128.57765625 46.95078125 129.3975 47.6984375 130.2421875 48.46875 C136.82186016 54.76843659 142.35799008 61.89191232 147.7578125 69.203125 C148.40218262 70.07300049 148.40218262 70.07300049 149.05957031 70.96044922 C166.82992343 95.31773462 178.77964128 127.0902246 178.9609375 157.4453125 C178.96663757 158.21255646 178.97233765 158.97980042 178.97821045 159.77029419 C178.98759975 161.38884125 178.99417006 163.00740691 178.99804688 164.62597656 C179.00765061 167.03747436 179.03868896 169.44808011 179.0703125 171.859375 C179.17090476 186.49400443 177.21756261 200.64541223 173.0703125 214.703125 C172.81612549 215.57348389 172.56193848 216.44384277 172.30004883 217.34057617 C159.4600976 259.63439937 129.36477047 294.64508055 90.99609375 316.04003906 C69.62275178 327.44821719 44.84608996 335.26093593 20.515625 335.40625 C19.74838104 335.41195007 18.98113708 335.41765015 18.19064331 335.42352295 C16.57209625 335.43291225 14.95353059 335.43948256 13.33496094 335.44335938 C10.92346314 335.45296311 8.51285739 335.48400146 6.1015625 335.515625 C-36.58545972 335.80457625 -76.09951821 317.65897576 -107.2421875 289.203125 C-108.06203125 288.45546875 -108.881875 287.7078125 -109.7265625 286.9375 C-116.30623516 280.63781341 -121.84236508 273.51433768 -127.2421875 266.203125 C-127.67176758 265.62320801 -128.10134766 265.04329102 -128.54394531 264.44580078 C-146.31429843 240.08851538 -158.26401628 208.3160254 -158.4453125 177.9609375 C-158.45101257 177.19369354 -158.45671265 176.42644958 -158.46258545 175.63595581 C-158.47197475 174.01740875 -158.47854506 172.39884309 -158.48242188 170.78027344 C-158.49202561 168.36877564 -158.52306396 165.95816989 -158.5546875 163.546875 C-158.65527976 148.91224557 -156.70193761 134.76083777 -152.5546875 120.703125 C-152.30050049 119.83276611 -152.04631348 118.96240723 -151.78442383 118.06567383 C-138.9444726 75.77185063 -108.84914547 40.76116945 -70.48046875 19.36621094 C-49.10712678 7.95803281 -24.33046496 0.14531407 0 0 Z " fill="#F0F0F0" transform="translate(158.2421875,-0.203125)"/>
<path d="M0 0 C7.10772163 4.49672185 13.33826888 9.76480664 16.0625 17.9375 C16.74736368 28.30264836 16.45057735 35.99054741 9.875 44.1875 C4.66697503 49.78008378 -0.51274782 51.75552848 -7.9375 52.9375 C-9.60811933 71.76285761 -9.60811933 71.76285761 -3.9765625 88.890625 C-0.96741892 92.10023894 2.33809308 94.61168817 6.0625 96.9375 C6.80113281 96.5765625 7.53976563 96.215625 8.30078125 95.84375 C15.70274833 92.45784384 20.92892213 91.01322979 29.0625 91.9375 C33.0225 93.5875 36.9825 95.2375 41.0625 96.9375 C51.6225 86.3775 62.1825 75.8175 73.0625 64.9375 C70.5875 59.4925 70.5875 59.4925 68.0625 53.9375 C67.75068349 50.24024715 67.62723209 47.50908192 68.0625 43.9375 C68.14628906 43.23753906 68.23007813 42.53757813 68.31640625 41.81640625 C69.55781054 35.11282306 73.58876051 30.34438167 78.375 25.6875 C85.91948101 20.77481469 92.3676856 18.63573053 101.3125 20.375 C109.33562644 22.60364623 115.87196843 27.33744557 120.0625 34.5625 C123.18625193 40.57138393 124.05544265 46.9358215 122.4140625 53.55078125 C119.79352059 61.64758383 115.77193008 67.93049265 108.375 72.375 C100.3073141 76.18051222 92.43204411 75.54440718 84.0625 72.9375 C82.0825 71.9475 80.1025 70.9575 78.0625 69.9375 C67.5025 80.4975 56.9425 91.0575 46.0625 101.9375 C47.7125 105.8975 49.3625 109.8575 51.0625 113.9375 C51.85907104 121.99171834 50.73237046 126.86305092 47.0625 133.9375 C46.7325 134.9275 46.4025 135.9175 46.0625 136.9375 C49.47823145 142.40723477 53.15226763 147.08754809 59.0625 149.9375 C69.20220289 151.91617667 79.78769212 151.38323905 90.0625 150.9375 C90.20421631 149.832854 90.34593262 148.72820801 90.49194336 147.59008789 C91.69943973 139.85994106 96.7958838 134.6199631 102.9375 130.12890625 C109.92652437 126.21042752 117.24971038 126.09477213 125.0625 126.9375 C132.63647506 129.4251399 139.1053873 135.13353448 142.7265625 142.171875 C144.13802932 146.15039551 144.60272069 149.63809496 144.5625 153.8125 C144.55283203 154.86522095 144.55283203 154.86522095 144.54296875 155.93920898 C144.2479851 164.33168794 141.18515159 169.15830233 135.25 174.8125 C127.77520675 180.81182195 120.54970254 181.89408258 111.0625 180.9375 C107.25 179.75 107.25 179.75 104.0625 177.9375 C103.47984375 177.60878906 102.8971875 177.28007812 102.296875 176.94140625 C97.21584191 173.74919198 93.61279704 169.36329975 91.0625 163.9375 C90.7325 161.6275 90.4025 159.3175 90.0625 156.9375 C80.4925 156.9375 70.9225 156.9375 61.0625 156.9375 C61.0625 166.5075 61.0625 176.0775 61.0625 185.9375 C63.3725 186.2675 65.6825 186.5975 68.0625 186.9375 C75.59406014 190.98596597 82.01786202 196.49622217 84.66015625 204.8203125 C86.27269106 213.30568983 85.45816848 221.45578698 81.0625 228.9375 C78.98807839 231.67363584 76.76582352 233.82745245 74.0625 235.9375 C73.51207031 236.37191406 72.96164063 236.80632812 72.39453125 237.25390625 C65.81422681 241.422885 57.51819337 240.68383876 50.0625 239.9375 C42.52748938 237.99927048 36.59592739 231.8817477 32.625 225.375 C29.54617943 218.56709072 29.90018957 209.52628892 32.1875 202.5 C35.37838385 195.55426213 41.01219518 189.93604792 48.0625 186.9375 C50.39218666 186.5795676 52.72550039 186.24407524 55.0625 185.9375 C56.73311933 167.11214239 56.73311933 167.11214239 51.1015625 149.984375 C48.09241892 146.77476106 44.78690692 144.26331183 41.0625 141.9375 C40.32386719 142.2984375 39.58523437 142.659375 38.82421875 143.03125 C30.97715882 146.62075645 23.93872639 148.92883845 15.48046875 146.0625 C13.28908719 145.09956658 11.18609851 144.03911673 9.0625 142.9375 C8.0725 142.6075 7.0825 142.2775 6.0625 141.9375 C-4.4975 152.4975 -15.0575 163.0575 -25.9375 173.9375 C-24.6175 176.5775 -23.2975 179.2175 -21.9375 181.9375 C-19.51887693 191.41044035 -20.87523967 198.6577408 -25.75 207.0625 C-30.97457668 213.92908649 -36.70439273 216.69539465 -44.9375 218.9375 C-52.32506891 219.82910314 -59.02181165 217.48649902 -65.125 213.375 C-71.68697342 208.12542127 -75.25794473 201.04235717 -76.17578125 192.796875 C-76.4570151 184.80391295 -73.74024188 178.89668775 -68.8125 172.6875 C-63.66697062 167.201861 -57.5444496 163.72410407 -49.9375 163.4375 C-43.11997588 163.80310855 -37.00213286 165.90518357 -30.9375 168.9375 C-20.3775 158.3775 -9.8175 147.8175 1.0625 136.9375 C-0.5875 132.9775 -2.2375 129.0175 -3.9375 124.9375 C-4.73407104 116.88328166 -3.60737046 112.01194908 0.0625 104.9375 C0.5575 103.4525 0.5575 103.4525 1.0625 101.9375 C-2.35323145 96.46776523 -6.02726763 91.78745191 -11.9375 88.9375 C-22.07720289 86.95882333 -32.66269212 87.49176095 -42.9375 87.9375 C-43.052146 88.53860596 -43.16679199 89.13971191 -43.28491211 89.7590332 C-45.03409351 98.34363742 -48.27945676 103.33566201 -55.5625 108.375 C-62.52589702 112.85845036 -69.83370219 112.57416201 -77.9375 111.9375 C-85.26652443 109.99712033 -90.58711185 104.30638968 -94.8125 98.25 C-98.20822359 91.2699015 -98.35131993 81.56875127 -96.1015625 74.19921875 C-92.62805534 67.45035752 -87.14762653 62.88875338 -80.75 59 C-74.21657033 57.17920812 -66.50614853 56.57378169 -60.0625 59.125 C-59.03125 59.723125 -58 60.32125 -56.9375 60.9375 C-56.35613281 61.26621094 -55.77476563 61.59492187 -55.17578125 61.93359375 C-50.09102346 65.12121848 -46.48778599 69.51172377 -43.9375 74.9375 C-43.4425 78.4025 -43.4425 78.4025 -42.9375 81.9375 C-33.3675 81.9375 -23.7975 81.9375 -13.9375 81.9375 C-13.9375 72.3675 -13.9375 62.7975 -13.9375 52.9375 C-16.9075 52.2775 -19.8775 51.6175 -22.9375 50.9375 C-29.68751038 47.2861786 -35.14837685 41.45589934 -37.5390625 34.08203125 C-39.04542113 25.97427745 -38.69851335 18.37276405 -34.55859375 11.16015625 C-26.56016912 0.19364151 -13.12789093 -4.89257046 0 0 Z " fill="#29292A" transform="translate(144.9375,48.0625)"/>
<path d="M0 0 C6.05891015 2.72650957 9.92924977 6.3855719 13.203125 12.16015625 C15.2189131 18.20752054 15.32390272 25.58456533 12.703125 31.47265625 C9.21103433 37.42536597 3.77028188 42.05070586 -2.796875 44.16015625 C-9.8515786 45.06703892 -16.0341876 44.52472329 -21.796875 40.16015625 C-26.57977646 35.6324689 -30.2700373 31.25846344 -31.1328125 24.546875 C-31.24221451 16.98719581 -30.23427586 11.72434648 -24.890625 6.18359375 C-17.3053101 -0.69413581 -10.22119422 -3.06921335 0 0 Z " fill="#28B4F3" transform="translate(104.796875,217.83984375)"/>
<path d="M0 0 C5.99822048 3.4681069 10.63203045 8.90632121 12.75 15.5 C13.65688267 22.5547036 13.11456704 28.7373126 8.75 34.5 C4.13878691 39.37113533 -0.2337116 42.96711257 -7.046875 43.87109375 C-14.24949358 44.0330574 -19.66482148 43.30148747 -25.25 38.5 C-30.80987294 31.80234716 -32.68394251 26.24176055 -32.58984375 17.57421875 C-31.80998955 10.51967559 -27.31821915 6.13778881 -22.09375 1.7265625 C-15.5888112 -2.6008756 -7.15489214 -3.15205775 0 0 Z " fill="#25C4D7" transform="translate(250.25,74.5)"/>
<path d="M0 0 C4.69432183 3.05888068 8.78752022 7.94868498 10.81640625 13.18359375 C11.69563699 20.91264541 11.47609235 27.76697683 6.81640625 34.18359375 C2.72161361 39.18834032 -2.16916802 42.47400622 -8.5703125 43.60546875 C-15.31235259 43.98649456 -20.71429351 42.1064022 -26.18359375 38.18359375 C-31.26617039 32.97500281 -34.20325137 27.66671703 -34.55859375 20.37109375 C-34.39088748 14.09142546 -32.64161418 9.7373158 -28.27734375 5.203125 C-20.08265119 -2.21184868 -10.62132553 -4.63435707 0 0 Z " fill="#9AC964" transform="translate(214.18359375,240.81640625)"/>
<path d="M0 0 C4.81723508 3.45512033 8.88163257 8.81223181 10.265625 14.625 C11.03969878 21.57956908 10.23509435 26.80744983 6.265625 32.625 C1.87989367 37.98533829 -2.98902194 41.11937734 -9.859375 42.046875 C-17.15456951 42.35084144 -22.24504598 41.58100558 -27.734375 36.625 C-33.23078756 31.36817465 -34.81602465 26.20412833 -35.171875 18.75 C-35.03290506 11.73201788 -32.84832867 7.80279327 -28.01953125 2.875 C-19.51147482 -4.86975159 -10.0846434 -5.58143786 0 0 Z " fill="#F8B34B" transform="translate(274.734375,182.375)"/>
<path d="M0 0 C5.87698575 3.25267136 8.89405573 7.70991697 12.125 13.4375 C13.89488266 20.69401892 12.89472361 26.15555461 9.3125 32.69921875 C6.1678779 37.32967479 1.96083065 40.90237965 -3.25 43 C-10.03286441 43.74611509 -17.36248469 43.82371962 -23.25 40 C-28.2882068 35.39078903 -31.88048555 30.83431224 -32.55078125 23.87890625 C-32.57823704 16.10891898 -32.21025455 11.36028894 -26.9375 5.375 C-18.7079532 -1.89762275 -10.35662105 -4.66909693 0 0 Z " fill="#65B969" transform="translate(144.25,53)"/>
<path d="M0 0 C5.50738429 3.1729786 10.41653445 8.55626699 12.75 14.5 C13.64956571 21.82204647 13.36014826 28.52863805 8.75 34.5 C4.21591879 39.28019001 -0.14755408 42.97263027 -6.86328125 43.8359375 C-14.4297451 43.9454377 -19.64193787 42.91553707 -25.2265625 37.62890625 C-30.8467694 31.51143824 -32.75571857 26.59779648 -32.5546875 18.27734375 C-31.74547171 10.90103061 -27.82992154 6.63194088 -22.34765625 1.9453125 C-15.79678148 -2.56832561 -7.3027131 -3.21717965 0 0 Z " fill="#9374CB" transform="translate(178.25,146.5)"/>
<path d="M0 0 C5.97916957 2.71674889 9.98974117 7.25462905 12.94921875 13.0390625 C14.21962344 19.77220737 15.05598223 26.67728002 11.44921875 32.7890625 C6.92399376 38.91591207 1.17611649 43.40049404 -6.51953125 44.70703125 C-12.98443752 45.12816071 -18.17779665 43.05811869 -23.42578125 39.3515625 C-28.51172199 34.15027053 -31.44567728 28.82979084 -31.80078125 21.5390625 C-31.65211921 14.879003 -29.28975291 10.50229903 -24.98828125 5.5390625 C-17.53035908 -0.82745643 -9.64862568 -2.57918174 0 0 Z " fill="#F8B34B" transform="translate(83.42578125,111.6484375)"/>
<path d="M0 0 C7.76878624 5.25234324 12.12971502 12.88285929 14.82421875 21.71484375 C14.82421875 23.03484375 14.82421875 24.35484375 14.82421875 25.71484375 C12.51421875 25.71484375 10.20421875 25.71484375 7.82421875 25.71484375 C7.66566406 25.14636719 7.50710937 24.57789063 7.34375 23.9921875 C4.61688196 14.96791151 0.93647729 10.01811011 -6.9921875 4.87890625 C-13.46488921 1.42834255 -22.14524278 1.48863627 -29.0390625 3.5859375 C-36.96282296 7.2532318 -41.80597519 12.7006918 -45.17578125 20.71484375 C-46.31216069 31.04252749 -45.55319546 38.68870679 -38.98828125 46.90234375 C-34.40809718 51.79610889 -30.59478814 54.3669448 -23.8359375 55.0546875 C-14.08929219 55.31473673 -6.98438136 54.13011333 0.2890625 47.453125 C4.32143211 42.8872103 5.92249805 37.42000585 7.82421875 31.71484375 C18.05421875 31.71484375 28.28421875 31.71484375 38.82421875 31.71484375 C38.82421875 32.04484375 38.82421875 32.37484375 38.82421875 32.71484375 C30.90421875 32.71484375 22.98421875 32.71484375 14.82421875 32.71484375 C14.16421875 35.68484375 13.50421875 38.65484375 12.82421875 41.71484375 C8.94743908 50.6289677 2.77622671 57.30043028 -6.17578125 61.15234375 C-15.70607081 64.17930118 -25.76215164 64.36495109 -34.86328125 60.02734375 C-38.89033422 57.70593026 -42.20385103 55.33688371 -45.17578125 51.71484375 C-45.85640625 50.97234375 -46.53703125 50.22984375 -47.23828125 49.46484375 C-53.74316199 40.2321098 -54.74581018 30.79562484 -53.17578125 19.71484375 C-50.31972941 9.67403651 -43.59368251 2.66844236 -34.8359375 -2.7265625 C-23.37614482 -8.19904253 -10.58359951 -6.25135411 0 0 Z " fill="#C9C9C9" transform="translate(94.17578125,104.28515625)"/>
<path d="M0 0 C6.05516916 4.71925654 11.34234143 13.22376907 12.48876953 20.8046875 C12.62483167 22.92143274 12.65591724 25.00417328 12.625 27.125 C12.61525146 27.87338135 12.60550293 28.6217627 12.59545898 29.39282227 C12.26437612 39.76188865 8.64592576 46.20574773 1.48828125 53.6796875 C-6.33252774 60.9295376 -15.54683845 62.38924721 -25.94140625 62.265625 C-34.50761131 61.26292088 -43.03124347 56.44758865 -48.5078125 49.734375 C-52.47256744 43.71141395 -55.8125 38.21851336 -55.8125 30.8125 C-53.5025 30.8125 -51.1925 30.8125 -48.8125 30.8125 C-48.44125 31.946875 -48.07 33.08125 -47.6875 34.25 C-44.5035699 42.60226314 -40.11460736 49.04798168 -31.8125 52.8125 C-24.07605078 55.29008188 -15.3959419 54.53220356 -8.0703125 51.2109375 C-2.23298413 47.59542962 1.59643893 42.08559522 4.1875 35.8125 C4.49872909 33.08153486 4.66616771 30.65681998 4.625 27.9375 C4.61597656 27.22859619 4.60695313 26.51969238 4.59765625 25.78930664 C4.36956467 18.90775193 3.06170986 14.82124735 -1.6484375 9.890625 C-8.83641625 3.22590907 -14.62371947 1.28447084 -24.40234375 1.53125 C-31.96884657 2.15529147 -37.83590326 4.98830771 -42.8125 10.8125 C-45.5694664 15.32195667 -47.53032287 19.68379149 -48.8125 24.8125 C-59.0425 24.8125 -69.2725 24.8125 -79.8125 24.8125 C-79.8125 24.4825 -79.8125 24.1525 -79.8125 23.8125 C-71.5625 23.8125 -63.3125 23.8125 -54.8125 23.8125 C-54.4825 20.5125 -54.1525 17.2125 -53.8125 13.8125 C-50.03793162 5.42082565 -42.45705779 -1.2503265 -34.1875 -5.125 C-22.61489996 -8.82084033 -10.08458221 -6.32758099 0 0 Z " fill="#C9C9C9" transform="translate(283.8125,174.1875)"/>
<path d="M0 0 C7.73691681 5.31913031 13.3246893 11.91443502 16 21 C17.58870223 31.7580141 16.2446223 41.76116156 9.875 50.6875 C4.24931885 57.473848 -2.65930263 61.41150771 -11 64 C-11.99 64 -12.98 64 -14 64 C-14 71.92 -14 79.84 -14 88 C-14.33 88 -14.66 88 -15 88 C-15 77.77 -15 67.54 -15 57 C-11.7 55.68 -8.4 54.36 -5 53 C1.00861447 49.88014249 5.40345319 44.57804988 7.6484375 38.140625 C8.85869958 30.77147366 9.3837502 22.3110074 5.39453125 15.7421875 C1.22493171 10.53310797 -4.28721949 5.32381186 -11 4 C-18.96853193 3.19864481 -26.28907164 2.87122492 -33.13671875 7.44921875 C-38.09710075 11.57767086 -42.58890379 16.53247572 -44 23 C-44.66705213 30.31904419 -44.68338829 36.5540705 -41 43 C-40.46375 44.010625 -39.9275 45.02125 -39.375 46.0625 C-34.56777346 52.00828019 -28.41729697 55.42185171 -21 57 C-21 59.31 -21 61.62 -21 64 C-29.12484852 63.47011857 -37.22190623 59.77809377 -43 54 C-50.95472372 43.72004935 -53.25541211 35.09013972 -52 22 C-51.13242674 18.62773786 -49.85916203 15.93308792 -48 13 C-47.34644531 11.95585938 -47.34644531 11.95585938 -46.6796875 10.890625 C-36.12575828 -4.450059 -16.57830832 -9.32529843 0 0 Z " fill="#C9C9C9" transform="translate(152,44)"/>
<path d="M0 0 C0.33 0 0.66 0 1 0 C1 10.23 1 20.46 1 31 C-2.63 32.32 -6.26 33.64 -10 35 C-16.16345422 39.4024673 -20.5338956 44.33010198 -22 52 C-22.76519788 60.77791286 -22.77462708 68.00381719 -17 75 C-11.41301421 80.85732382 -6.64103475 84.18079735 1.67236328 84.43139648 C10.39049672 84.45700792 16.20638304 83.36940307 22.765625 77.390625 C29.06683615 70.722353 30.53879547 63.85647266 30.2890625 54.83203125 C29.88631465 50.88619086 28.94196751 48.46779913 27 45 C26.46375 43.989375 25.9275 42.97875 25.375 41.9375 C20.56777346 35.99171981 14.41729697 32.57814829 7 31 C7 29.02 7 27.04 7 25 C15.93027018 25.20129707 21.18667701 27.53334274 27.75 33.5 C35.88794361 42.54215957 38.3711816 49.88912733 38.20703125 61.9765625 C37.55879362 71.44327805 32.95235441 78.45373865 26.046875 84.79296875 C16.72929446 92.22135481 7.50593155 93.01050097 -4 92 C-13.13134511 89.98679005 -20.92771882 83.78957467 -26 76 C-30.94841805 67.34026841 -31.68582266 56.92284571 -29.33984375 47.2890625 C-28.41238277 45.00052242 -27.35254132 43.06482639 -26 41 C-25.25363281 39.84757812 -25.25363281 39.84757812 -24.4921875 38.671875 C-20.67027886 33.30342658 -16.19770926 28.51137278 -10 26 C-6.7 25.67 -3.4 25.34 0 25 C0 16.75 0 8.5 0 0 Z " fill="#C9C9C9" transform="translate(199,203)"/>
<path d="M0 0 C6.73827531 5.8075743 11.73229863 13.45363677 12.96875 22.34765625 C13.63631634 33.4125683 11.45417633 42.69770713 4.11328125 51.29296875 C-3.34600492 58.43084941 -11.1411185 62.17887467 -21.5 62.5 C-27.78740723 62.28275219 -32.50353507 61.17430068 -37.875 57.9375 C-38.885625 57.36 -39.89625 56.7825 -40.9375 56.1875 C-41.576875 55.775 -42.21625 55.3625 -42.875 54.9375 C-41.50516497 51.77634224 -40.8859362 50.9447908 -37.875 48.9375 C-36.328125 49.8965625 -36.328125 49.8965625 -34.75 50.875 C-28.90549344 54.18299071 -22.48827591 54.58495359 -15.875 53.9375 C-8.98108158 51.6005785 -2.84816657 48.16212763 1.125 41.9375 C5.04729525 33.21377436 6.46339709 26.26205681 3.0859375 17.13671875 C-0.25454903 9.49162152 -5.32607887 5.4524664 -12.875 1.9375 C-21.32929377 -0.20200686 -28.33084938 0.48272733 -35.875 4.9375 C-41.82152679 9.00741084 -45.73682565 13.66934619 -47.625 20.75 C-47.7075 21.801875 -47.79 22.85375 -47.875 23.9375 C-47.94976562 24.66710937 -48.02453125 25.39671875 -48.1015625 26.1484375 C-48.53553118 33.38886236 -46.2402144 38.61570438 -42.875 44.9375 C-44.195 46.2575 -45.515 47.5775 -46.875 48.9375 C-49.875 47.9375 -49.875 47.9375 -51.2265625 45.86328125 C-55.57485307 36.93994875 -55.57485307 36.93994875 -55.875 31.9375 C-55.936875 31.04160156 -55.99875 30.14570312 -56.0625 29.22265625 C-56.49276623 18.56012115 -53.06495468 10.77207131 -45.875 2.9375 C-32.70092749 -8.92184837 -14.7744669 -10.52427779 0 0 Z " fill="#CACACA" transform="translate(261.875,68.0625)"/>
<path d="M0 0 C1.11650435 0.77416935 2.22595656 1.5593141 3.3125 2.375 C1.94266497 5.53615776 1.3234362 6.3677092 -1.6875 8.375 C-2.20699219 8.09785156 -2.72648437 7.82070312 -3.26171875 7.53515625 C-8.71944037 4.67740675 -8.71944037 4.67740675 -14.6875 3.375 C-15.76451172 3.26285156 -15.76451172 3.26285156 -16.86328125 3.1484375 C-24.57520207 2.69267857 -30.64240141 4.87677097 -36.5078125 9.94921875 C-41.38067612 15.20162702 -44.83492846 21.63582342 -45.125 28.875 C-44.67795401 37.16698212 -41.610589 44.50308239 -35.6875 50.375 C-29.10853573 55.05105397 -22.78833473 57.02829312 -14.6875 56.375 C-5.9612804 54.12265718 0.95679824 50.61205596 5.6875 42.75 C9.57364873 34.67876802 8.92899305 26.77531978 6.3125 18.375 C5.37086649 16.34686629 4.39010308 14.33427833 3.3125 12.375 C4.6325 11.055 5.9525 9.735 7.3125 8.375 C10.3125 9.375 10.3125 9.375 11.6640625 11.4140625 C14.14270221 16.44737381 16.00802435 20.69145446 16.3125 26.375 C16.36277344 27.15746094 16.41304688 27.93992188 16.46484375 28.74609375 C16.86479571 39.25683135 12.7281823 47.38854726 5.71875 55.13671875 C-1.89318499 62.26393147 -10.30258155 63.9713674 -20.42480469 63.84765625 C-28.92421317 63.49935087 -35.80727338 61.00028792 -42.08984375 55.1484375 C-50.50279886 45.80985164 -52.42896405 37.4210283 -52.12890625 25.19921875 C-51.56615101 16.15808829 -47.12166166 8.77555592 -40.47265625 2.76953125 C-29.12176279 -6.09757809 -12.49538232 -7.79305646 0 0 Z " fill="#CACACA" transform="translate(114.6875,209.625)"/>
<path d="M0 0 C6.53517533 4.32626318 11.70329472 10.31191169 13.8125 17.9375 C13.874375 18.948125 13.93625 19.95875 14 21 C14.05027344 21.70125 14.10054687 22.4025 14.15234375 23.125 C14.48388641 30.97593017 11.73868642 36.77201214 7 43 C1.37598347 48.76118767 -5.66639222 51.47697837 -13.625 52.4375 C-21.54885388 51.41033376 -28.30603425 48.7418142 -34 43 C-39.54543211 35.47750078 -42.06892793 28.36075463 -41 19 C-38.83950931 11.33416255 -34.21205842 4.91658499 -27.67578125 0.390625 C-18.66916392 -4.64290054 -9.31413504 -4.29883156 0 0 Z M-32.7734375 12.15625 C-36.52569413 17.79658481 -36.72138894 23.4242624 -36 30 C-34.17604112 36.63782504 -29.56483184 41.16575832 -24 45 C-18.22176203 47.7959216 -11.9443422 48.08383664 -5.75390625 46.3828125 C0.41311342 43.66595783 5.22623342 38.6365181 8.16796875 32.60546875 C10.21105106 26.20764761 10.03906195 19.18076396 7.0625 13.125 C3.54501333 7.58168289 -1.83401224 4.05532925 -8 2 C-19.35131996 0.82282608 -25.52614971 3.57287004 -32.7734375 12.15625 Z " fill="#272A2B" transform="translate(110,215)"/>
<path d="M0 0 C6.65726477 4.01393905 11.12255261 8.72930705 14 16 C15.98851614 24.46723002 14.79166224 31.23824436 11 39 C6.57000418 45.57920171 0.93031602 50.40490797 -7 52 C-15.6179412 52.69656292 -23.15179468 51.53684686 -30 46 C-35.91280018 40.1760187 -40.07693065 34.6346069 -40.3125 26.0625 C-39.9331942 16.03365463 -36.91658784 9.78370709 -29.6875 2.75 C-19.91159998 -3.61570234 -10.74728888 -5.20687617 0 0 Z M-31.5546875 12 C-35.7124984 17.7535113 -35.81469495 23.03650207 -35 30 C-32.77487141 37.41019568 -28.6972379 42.2030304 -22 46 C-15.95263571 48.0157881 -8.57559092 48.12077772 -2.6875 45.5 C3.26520972 42.00790933 7.89054961 36.56715688 10 30 C10.90688267 22.9452964 10.36456704 16.7626874 6 11 C1.47231265 6.21709854 -2.90169281 2.5268377 -9.61328125 1.6640625 C-19.74224108 1.51747842 -25.07586079 4.2856761 -31.5546875 12 Z " fill="#272A2A" transform="translate(253,71)"/>
<path d="M0 0 C6.87427749 5.42562259 11.32988266 10.31235229 12.43359375 19.41796875 C12.46783413 20.75350801 12.4777154 22.08986515 12.46484375 23.42578125 C12.45839844 24.12759521 12.45195312 24.82940918 12.4453125 25.55249023 C12.15032885 33.94496919 9.08749534 38.77158358 3.15234375 44.42578125 C-4.3224495 50.4251032 -11.54795371 51.50736383 -21.03515625 50.55078125 C-24.84765625 49.36328125 -24.84765625 49.36328125 -28.03515625 47.55078125 C-28.90914062 47.05771484 -28.90914062 47.05771484 -29.80078125 46.5546875 C-35.2770909 43.11413644 -39.58903858 37.82740974 -41.67578125 31.65625 C-43.06394827 23.52340189 -42.8201592 16.00050468 -38.6484375 8.7734375 C-29.88785352 -3.29622905 -13.2272993 -8.74430401 0 0 Z M-33.58984375 10.55078125 C-37.77920242 16.34794784 -37.58460241 21.55209821 -37.03515625 28.55078125 C-35.83782075 35.58068175 -31.71523223 39.5169461 -26.03515625 43.55078125 C-20.89693247 46.78236853 -14.87588466 46.11668915 -9.03515625 45.55078125 C-2.16740593 43.52763824 2.72363658 39.01726195 6.27734375 32.86328125 C8.87954785 27.17895836 9.01772352 21.84042402 7.1171875 15.90234375 C3.89290176 8.62310883 -0.68237903 5.07081017 -7.41015625 1.17578125 C-18.75522881 -1.5254265 -26.29760054 1.86792422 -33.58984375 10.55078125 Z " fill="#2A2926" transform="translate(277.03515625,178.44921875)"/>
<path d="M0 0 C1.546875 0.8971875 1.546875 0.8971875 3.125 1.8125 C3.70636719 2.14121094 4.28773437 2.46992187 4.88671875 2.80859375 C10.37286624 6.2478489 14.69581111 11.55091859 16.76953125 17.734375 C18.38499209 27.17860762 17.1903704 34.90775452 11.76953125 42.78125 C7.67402319 47.96376958 2.72992287 51.56386617 -3.875 52.8125 C-13.33100796 53.52286513 -20.46544128 53.43362101 -27.8046875 47.1640625 C-34.73736939 40.57657639 -36.99809285 35.12965049 -37.25 25.625 C-37.28092555 17.60755165 -35.47135029 12.64961014 -30.0078125 6.8203125 C-21.85814786 -0.82198002 -10.87570298 -4.305991 0 0 Z M-27.875 11.8125 C-32.45557207 18.17440566 -33.81795428 23.06053864 -32.875 30.8125 C-30.15887978 39.48123884 -25.11710754 43.85541369 -17.4375 48.1875 C-10.18098108 49.95738266 -4.71944539 48.95722361 1.82421875 45.375 C6.45467479 42.2303779 10.02737965 38.02333065 12.125 32.8125 C12.87111509 26.02963559 12.94871962 18.70001531 9.125 12.8125 C4.51578903 7.7742932 -0.04068776 4.18201445 -6.99609375 3.51171875 C-16.35045432 3.47866447 -21.50556959 4.60498664 -27.875 11.8125 Z " fill="#2A2826" transform="translate(84.875,107.1875)"/>
<path d="M0 0 C7.21217894 3.8753967 12.98775609 8.9262331 15.63671875 16.921875 C17.12582165 25.44018407 16.412391 33.48982417 12 41 C9.92557839 43.73613584 7.70332352 45.88995245 5 48 C4.44957031 48.43441406 3.89914063 48.86882812 3.33203125 49.31640625 C-3.24827319 53.485385 -11.54430663 52.74633876 -19 52 C-26.53501062 50.06177048 -32.46657261 43.9442477 -36.4375 37.4375 C-39.51632057 30.62959072 -39.16231043 21.58878892 -36.875 14.5625 C-33.54463264 7.31314221 -27.99234819 2.60799203 -21 -1 C-14.54850138 -3.15049954 -6.13276622 -2.99824126 0 0 Z M-30.8125 13.32421875 C-34.47839888 18.49747736 -34.85251659 23.81701129 -34 30 C-31.26054852 38.67705331 -26.25686933 42.95654934 -18.625 47.375 C-11.86106641 48.98546038 -5.81703077 48.69715862 0.25390625 45.19140625 C5.51924156 41.59872779 9.16222173 37.09985977 11 31 C11.96959452 23.8178184 11.94061339 17.59324153 7.48828125 11.6484375 C2.76648677 6.41852341 -1.60029216 3.45985647 -8.765625 2.7109375 C-18.87816481 2.22817806 -24.62229168 5.46870983 -30.8125 13.32421875 Z " fill="#282927" transform="translate(214,236)"/>
<path d="M0 0 C7.10772163 4.49672185 13.33826888 9.76480664 16.0625 17.9375 C16.74736368 28.30264836 16.45057735 35.99054741 9.875 44.1875 C5.29777233 49.13401568 -0.79451209 52.62253601 -7.609375 53.140625 C-17.56467805 53.2922286 -24.62645896 50.78872714 -31.9375 43.9375 C-38.01554376 36.14859947 -38.90486034 28.70109044 -37.9375 18.9375 C-35.38426805 10.29946294 -29.7175066 4.7961314 -22.1484375 0.26953125 C-15.89861659 -2.32315601 -6.45921592 -2.40725408 0 0 Z M-28.9375 11.9375 C-33.32401274 18.67393029 -33.59488603 23.92678161 -32.9375 31.9375 C-31.26279725 38.20250247 -27.23457052 42.38273303 -21.9375 45.9375 C-16.42275653 48.75899666 -9.98825483 48.70875259 -3.9375 47.9375 C3.03056736 45.27155633 7.36687559 40.03639978 10.875 33.625 C12.98835805 27.0624671 12.88275934 22.09558351 10.0625 15.75 C6.82155474 9.82975057 2.39742895 6.86824834 -3.3125 3.5625 C-13.75764784 1.07556004 -21.97336085 3.77950842 -28.9375 11.9375 Z " fill="#262927" transform="translate(144.9375,48.0625)"/>
<path d="M0 0 C2.90935971 1.07730171 3.95853114 1.93765437 5.70703125 4.56640625 C8.42350873 8.43196882 10.61917267 11.06885276 15 13 C25.1744718 14.75132054 35.71626267 14.31863513 46 14 C46 15.98 46 17.96 46 20 C36.43 20 26.86 20 17 20 C17 29.57 17 39.14 17 49 C15.02 49 13.04 49 11 49 C11.03778564 48.12899658 11.07557129 47.25799316 11.11450195 46.3605957 C12.48557871 28.88370877 12.48557871 28.88370877 7.0390625 13.046875 C4.02991892 9.83726106 0.72440692 7.32581183 -3 5 C-1.125 1.125 -1.125 1.125 0 0 Z " fill="#465B65" transform="translate(189,185)"/>
<path d="M0 0 C1.98 0 3.96 0 6 0 C5.96221436 0.87100342 5.92442871 1.74200684 5.88549805 2.6394043 C4.51442129 20.11629123 4.51442129 20.11629123 9.9609375 35.953125 C12.97008108 39.16273894 16.27559308 41.67418817 20 44 C19.34 45.32 18.68 46.64 18 48 C16.68 48 15.36 48 14 48 C12.96519685 46.60836818 11.93712252 45.21090654 10.95410156 43.78222656 C7.47790494 39.06242529 4.29175935 36.42509193 -1.59326172 35.33349609 C-10.6733578 34.3968544 -19.8928487 34.66170567 -29 35 C-29 33.02 -29 31.04 -29 29 C-19.43 29 -9.86 29 0 29 C0 19.43 0 9.86 0 0 Z " fill="#465B65" transform="translate(131,101)"/>
<path d="M0 0 C1.32 0.66 2.64 1.32 4 2 C4 6 4 6 2.82312012 7.65789795 C1.99705261 8.47064178 1.99705261 8.47064178 1.15429688 9.29980469 C0.53365356 9.92014587 -0.08698975 10.54048706 -0.72644043 11.17962646 C-1.40452759 11.83706848 -2.08261475 12.4945105 -2.78125 13.171875 C-3.46932739 13.8542926 -4.15740479 14.53671021 -4.86633301 15.23980713 C-7.06835746 17.41942309 -9.28387457 19.58473174 -11.5 21.75 C-12.99439862 23.22433958 -14.48790002 24.69958918 -15.98046875 26.17578125 C-19.64331439 29.79449998 -23.31832256 33.40044646 -27 37 C-28.32 36.34 -29.64 35.68 -31 35 C-31 31 -31 31 -29.82312012 29.34210205 C-29.27240845 28.80027283 -28.72169678 28.2584436 -28.15429688 27.70019531 C-27.53365356 27.07985413 -26.91301025 26.45951294 -26.27355957 25.82037354 C-25.59547241 25.16293152 -24.91738525 24.5054895 -24.21875 23.828125 C-23.53067261 23.1457074 -22.84259521 22.46328979 -22.13366699 21.76019287 C-19.93164254 19.58057691 -17.71612543 17.41526826 -15.5 15.25 C-14.00560138 13.77566042 -12.51209998 12.30041082 -11.01953125 10.82421875 C-7.35668561 7.20550002 -3.68167744 3.59955354 0 0 Z " fill="#4C6069" transform="translate(146,185)"/>
<path d="M0 0 C1.32 0.66 2.64 1.32 4 2 C4 6 4 6 2.82312012 7.65789795 C1.99705261 8.47064178 1.99705261 8.47064178 1.15429688 9.29980469 C0.53365356 9.92014587 -0.08698975 10.54048706 -0.72644043 11.17962646 C-1.40452759 11.83706848 -2.08261475 12.4945105 -2.78125 13.171875 C-3.46932739 13.8542926 -4.15740479 14.53671021 -4.86633301 15.23980713 C-7.06835746 17.41942309 -9.28387457 19.58473174 -11.5 21.75 C-12.99439862 23.22433958 -14.48790002 24.69958918 -15.98046875 26.17578125 C-19.64331439 29.79449998 -23.31832256 33.40044646 -27 37 C-28.32 36.34 -29.64 35.68 -31 35 C-31 31 -31 31 -29.82312012 29.34210205 C-29.27240845 28.80027283 -28.72169678 28.2584436 -28.15429688 27.70019531 C-27.53365356 27.07985413 -26.91301025 26.45951294 -26.27355957 25.82037354 C-25.59547241 25.16293152 -24.91738525 24.5054895 -24.21875 23.828125 C-23.53067261 23.1457074 -22.84259521 22.46328979 -22.13366699 21.76019287 C-19.93164254 19.58057691 -17.71612543 17.41526826 -15.5 15.25 C-14.00560138 13.77566042 -12.51209998 12.30041082 -11.01953125 10.82421875 C-7.35668561 7.20550002 -3.68167744 3.59955354 0 0 Z " fill="#4C6069" transform="translate(218,113)"/>
<path d="M0 0 C1.65 1.65 3.3 3.3 5 5 C4.54625 5.70125 4.0925 6.4025 3.625 7.125 C-0.02565455 13.58385035 -0.97198389 19.66765548 0 27 C1.37733515 31.15120176 3.08085264 35.07260201 5 39 C3.71034824 40.37562854 2.37310707 41.70766393 1 43 C0.34 43 -0.32 43 -1 43 C-1.98163422 41.06374902 -2.96022454 39.12595461 -3.9375 37.1875 C-4.48277344 36.10855469 -5.02804688 35.02960938 -5.58984375 33.91796875 C-8.80434305 27.2663594 -9.05134843 19.79291197 -7.46875 12.578125 C-5.86318427 8.07556024 -3.41523825 3.41523825 0 0 Z " fill="#CACACA" transform="translate(142,146)"/>
<path d="M0 0 C0.66 0.99 1.32 1.98 2 3 C0.35 4.32 -1.3 5.64 -3 7 C-3.66644531 6.6390625 -4.33289063 6.278125 -5.01953125 5.90625 C-11.79603249 2.49430532 -17.41119187 0.74639158 -25 2 C-28.16625562 3.07136142 -31.03943703 4.46420796 -34 6 C-34.99 6.33 -35.98 6.66 -37 7 C-38.37562854 5.71034824 -39.70766393 4.37310707 -41 3 C-41 2.34 -41 1.68 -41 1 C-27.37236665 -6.31730066 -13.66278584 -9.41697988 0 0 Z " fill="#CACACA" transform="translate(188,139)"/>
<path d="M0 0 C0.73863281 0.3609375 1.47726563 0.721875 2.23828125 1.09375 C10.08534118 4.68325645 17.12377361 6.99133845 25.58203125 4.125 C27.77341281 3.16206658 29.87640149 2.10161673 32 1 C32.99 0.67 33.98 0.34 35 0 C36.32 1.65 37.64 3.3 39 5 C32.04969987 11.2987095 24.15319016 12.98723404 15 13 C8.37459294 12.46174684 1.95321806 10.66266616 -3 6 C-3 3 -3 3 -1.5 1.3125 C-0.7575 0.6628125 -0.7575 0.6628125 0 0 Z " fill="#CACACA" transform="translate(151,189)"/>
<path d="M0 0 C6.61068949 5.89602036 8.44442833 11.57997958 8.99609375 20.171875 C9.00797695 28.77531191 6.14038276 35.57259581 2 43 C-1.16115776 41.63016497 -1.9927092 41.0109362 -4 38 C-3.35546875 35.80859375 -3.35546875 35.80859375 -2.1875 33.4375 C-1.80980469 32.65246094 -1.43210938 31.86742187 -1.04296875 31.05859375 C-0.69878906 30.37925781 -0.35460937 29.69992188 0 29 C2.28976578 24.42046844 1.69778847 18.12825484 0.140625 13.37890625 C-0.84152484 11.21177129 -1.90474904 9.11132716 -3 7 C-3.33 6.01 -3.66 5.02 -4 4 C-2.68 2.68 -1.36 1.36 0 0 Z " fill="#CACACA" transform="translate(194,146)"/>
<path d="M0 0 C1.47906892 -0.02689216 2.95827483 -0.04634621 4.4375 -0.0625 C5.26121094 -0.07410156 6.08492187 -0.08570313 6.93359375 -0.09765625 C9 0 9 0 10 1 C10.04080783 2.99958364 10.04254356 5.00045254 10 7 C6.7 7 3.4 7 0 7 C0 4.69 0 2.38 0 0 Z " fill="#898989" transform="translate(158,320)"/>
<path d="M0 0 C1.98 0 3.96 0 6 0 C6 3.3 6 6.6 6 10 C3.69 10 1.38 10 -1 10 C-1.125 2.25 -1.125 2.25 0 0 Z " fill="#888888" transform="translate(10,153)"/>
<path d="M0 0 C0 3.3 0 6.6 0 10 C-1.98 10 -3.96 10 -6 10 C-6.33 7.03 -6.66 4.06 -7 1 C-5 0 -5 0 0 0 Z " fill="#838383" transform="translate(17,184)"/>
<path d="M0 0 C1.99954746 -0.04254356 4.00041636 -0.04080783 6 0 C7 1 7 1 7.09765625 2.84765625 C7.06510417 4.8984375 7.03255208 6.94921875 7 9 C4.69 9 2.38 9 0 9 C0 6.03 0 3.06 0 0 Z " fill="#828282" transform="translate(9,169)"/>
<path d="M0 0 C1.98 0.66 3.96 1.32 6 2 C5.01 4.97 4.02 7.94 3 11 C1.02 10.34 -0.96 9.68 -3 9 C-2.5020163 5.26512223 -2.12508244 3.18762365 0 0 Z " fill="#828282" transform="translate(21,107)"/>
<path d="M0 0 C2.97 0 5.94 0 9 0 C9.33 1.98 9.66 3.96 10 6 C6.7 6.33 3.4 6.66 0 7 C0 4.69 0 2.38 0 0 Z " fill="#828282" transform="translate(146,9)"/>
<path d="M0 0 C2.97 0 5.94 0 9 0 C9 1.98 9 3.96 9 6 C6.04335481 7.4783226 3.25770263 7.06032783 0 7 C0 4.69 0 2.38 0 0 Z " fill="#818181" transform="translate(174,320)"/>
<path d="M0 0 C0.66 0 1.32 0 2 0 C3.7143618 1.95927063 5.38405168 3.95880212 7 6 C6.1875 7.9375 6.1875 7.9375 5 10 C4.01 10.33 3.02 10.66 2 11 C0.35 9.02 -1.3 7.04 -3 5 C-1.125 1.125 -1.125 1.125 0 0 Z " fill="#818181" transform="translate(51,267)"/>
<path d="M0 0 C1.98 0.66 3.96 1.32 6 2 C5.44271087 5.34373475 4.64826111 8.03312999 3 11 C1.02 10.34 -0.96 9.68 -3 9 C-2.01 6.03 -1.02 3.06 0 0 Z " fill="#818181" transform="translate(310,224)"/>
<path d="M0 0 C0.66 3.3 1.32 6.6 2 10 C0.02 10 -1.96 10 -4 10 C-5.49821059 6.62902617 -6 4.79557881 -6 1 C-3 0 -3 0 0 0 Z " fill="#828282" transform="translate(19,199)"/>
<path d="M0 0 C1.98 0 3.96 0 6 0 C6 2.97 6 5.94 6 9 C3.69 9 1.38 9 -1 9 C-1.125 2.25 -1.125 2.25 0 0 Z " fill="#848484" transform="translate(322,165)"/>
<path d="M0 0 C4.875 0.875 4.875 0.875 6 2 C5.91062197 3.52519276 5.75462854 5.04681929 5.5625 6.5625 C5.46066406 7.38878906 5.35882812 8.21507812 5.25390625 9.06640625 C5.12822266 10.02353516 5.12822266 10.02353516 5 11 C2.03 10.505 2.03 10.505 -1 10 C-0.67 6.7 -0.34 3.4 0 0 Z " fill="#828282" transform="translate(15,122)"/>
<path d="M0 0 C0 1.65 0 3.3 0 5 C-1.47831221 5.19412181 -2.95769316 5.38012131 -4.4375 5.5625 C-5.26121094 5.66691406 -6.08492187 5.77132813 -6.93359375 5.87890625 C-7.61550781 5.91886719 -8.29742187 5.95882813 -9 6 C-10 5 -10 5 -10.0625 2.4375 C-10.041875 1.633125 -10.02125 0.82875 -10 0 C-6.30458414 -0.95024979 -3.69541586 -0.95024979 0 0 Z " fill="#7F7F7F" transform="translate(199,319)"/>
<path d="M0 0 C2.9719385 1.12451727 5.33440687 2.22293791 8 4 C7.49396008 6.16874252 7.00016187 7.99967627 6 10 C3.0280615 8.87548273 0.66559313 7.77706209 -2 6 C-1.49396008 3.83125748 -1.00016187 2.00032373 0 0 Z " fill="#7F7F7F" transform="translate(86,297)"/>
<path d="M0 0 C2.31 1.65 4.62 3.3 7 5 C6.34 6.65 5.68 8.3 5 10 C1.09161134 10 -0.11594107 8.49432124 -3 6 C-2.42655063 3.13275314 -2.1385485 2.1385485 0 0 Z " fill="#808080" transform="translate(62,278)"/>
<path d="M0 0 C2.0245738 1.93254772 3.42105792 3.63158688 5 6 C5 6.99 5 7.98 5 9 C3.35 9.66 1.7 10.32 0 11 C-2.475 7.04 -2.475 7.04 -5 3 C-3.35 2.01 -1.7 1.02 0 0 Z " fill="#7F7F7F" transform="translate(34,242)"/>
<path d="M0 0 C4.875 1.75 4.875 1.75 6 4 C5.22265625 5.7265625 5.22265625 5.7265625 4.0625 7.625 C3.0415625 9.295625 3.0415625 9.295625 2 11 C-2.875 9.25 -2.875 9.25 -4 7 C-3.22265625 5.2734375 -3.22265625 5.2734375 -2.0625 3.375 C-1.381875 2.26125 -0.70125 1.1475 0 0 Z " fill="#7F7F7F" transform="translate(304,238)"/>
<path d="M0 0 C2.61047801 1.305239 2.68066423 2.35826574 3.625 5.0625 C3.88539062 5.79597656 4.14578125 6.52945313 4.4140625 7.28515625 C4.60742188 7.85105469 4.80078125 8.41695312 5 9 C3.02 9.66 1.04 10.32 -1 11 C-2.32 8.36 -3.64 5.72 -5 3 C-2.625 1.4375 -2.625 1.4375 0 0 Z " fill="#808080" transform="translate(27,228)"/>
<path d="M0 0 C1.98 0 3.96 0 6 0 C5.67 3.3 5.34 6.6 5 10 C2.03 9.505 2.03 9.505 -1 9 C-1.125 2.25 -1.125 2.25 0 0 Z " fill="#808080" transform="translate(12,138)"/>
<path d="M0 0 C0.66 3.3 1.32 6.6 2 10 C-0.31 10 -2.62 10 -5 10 C-5.33 7.03 -5.66 4.06 -6 1 C-2 0 -2 0 0 0 Z " fill="#818181" transform="translate(324,133)"/>
<path d="M0 0 C4.875 1.75 4.875 1.75 6 4 C5.22265625 5.7265625 5.22265625 5.7265625 4.0625 7.625 C3.0415625 9.295625 3.0415625 9.295625 2 11 C-2.875 9.25 -2.875 9.25 -4 7 C-3.22265625 5.2734375 -3.22265625 5.2734375 -2.0625 3.375 C-1.381875 2.26125 -0.70125 1.1475 0 0 Z " fill="#7F7F7F" transform="translate(35,79)"/>
<path d="M0 0 C4.69487485 3.37067938 4.69487485 3.37067938 6 6.0625 C6 8 6 8 4.6875 9.75 C3 11 3 11 1 11 C-1.6875 8.1875 -1.6875 8.1875 -4 5 C-3 2 -3 2 0 0 Z " fill="#7F7F7F" transform="translate(288,63)"/>
<path d="M0 0 C3.79588866 0.54226981 5.47211993 2.20127563 8 5 C7.34 6.32 6.68 7.64 6 9 C2 9 2 9 -0.25 7 C-0.8275 6.34 -1.405 5.68 -2 5 C-1.34 3.35 -0.68 1.7 0 0 Z " fill="#7F7F7F" transform="translate(276,52)"/>
<path d="M0 0 C6.875 3.75 6.875 3.75 8 6 C7.01 7.32 6.02 8.64 5 10 C2.0280615 8.87548273 -0.33440687 7.77706209 -3 6 C-1.125 1.125 -1.125 1.125 0 0 Z " fill="#7F7F7F" transform="translate(252,32)"/>
<path d="M0 0 C0.33 1.65 0.66 3.3 1 5 C-4.625 8 -4.625 8 -8 8 C-8.33 6.02 -8.66 4.04 -9 2 C-3.375 -1.125 -3.375 -1.125 0 0 Z " fill="#7F7F7F" transform="translate(110,21)"/>
<path d="M0 0 C0 1.98 0 3.96 0 6 C-2.97 6.66 -5.94 7.32 -9 8 C-9.33 6.02 -9.66 4.04 -10 2 C-6.38026598 0.68373308 -3.90432869 0 0 0 Z " fill="#818181" transform="translate(140,11)"/>
<path d="M0 0 C2.97 0.33 5.94 0.66 9 1 C8.67 3.31 8.34 5.62 8 8 C5.03 7.67 2.06 7.34 -1 7 C-0.67 4.69 -0.34 2.38 0 0 Z " fill="#818181" transform="translate(193,10)"/>
<path d="M0 0 C0.33 1.98 0.66 3.96 1 6 C-2.37097383 7.49821059 -4.20442119 8 -8 8 C-8.33 6.02 -8.66 4.04 -9 2 C-2.25 0 -2.25 0 0 0 Z " fill="#7F7F7F" transform="translate(213,314)"/>
<path d="M0 0 C0.33 1.98 0.66 3.96 1 6 C-1.64 6.99 -4.28 7.98 -7 9 C-9 6 -9 6 -9 3 C-2.25 0 -2.25 0 0 0 Z " fill="#7E7E7E" transform="translate(228,309)"/>
<path d="M0 0 C0.66 1.65 1.32 3.3 2 5 C-4.75 9 -4.75 9 -7 9 C-7.66 7.02 -8.32 5.04 -9 3 C-3.375 0 -3.375 0 0 0 Z " fill="#7E7E7E" transform="translate(242,303)"/>
<path d="M0 0 C1.65 1.65 3.3 3.3 5 5 C2.69 6.98 0.38 8.96 -2 11 C-3.32 9.35 -4.64 7.7 -6 6 C-4.02 4.02 -2.04 2.04 0 0 Z " fill="#7D7D7D" transform="translate(277,275)"/>
<path d="M0 0 C2.5 2.25 2.5 2.25 5 5 C5 6.32 5 7.64 5 9 C3.02 9.99 3.02 9.99 1 11 C-3.00390625 6.60546875 -3.00390625 6.60546875 -4 5 C-3 2 -3 2 0 0 Z " fill="#7D7D7D" transform="translate(42,255)"/>
<path d="M0 0 C1.49821059 3.37097383 2 5.20442119 2 9 C0.02 9.33 -1.96 9.66 -4 10 C-4.66 7.03 -5.32 4.06 -6 1 C-3 0 -3 0 0 0 Z " fill="#808080" transform="translate(23,214)"/>
<path d="M0 0 C0.33 2.64 0.66 5.28 1 8 C-0.98 8.33 -2.96 8.66 -5 9 C-5.66 6.03 -6.32 3.06 -7 0 C-3.86650268 -1.04449911 -3.01031744 -0.93423645 0 0 Z " fill="#7F7F7F" transform="translate(321,119)"/>
<path d="M0 0 C2.16874252 0.50603992 3.99967627 0.99983813 6 2 C4.125 7.75 4.125 7.75 3 10 C0.03 9.505 0.03 9.505 -3 9 C-2.44271087 5.65626525 -1.64826111 2.96687001 0 0 Z " fill="#7F7F7F" transform="translate(27,93)"/>
<path d="M0 0 C1.625 2.75 1.625 2.75 3 6 C2.375 8.3125 2.375 8.3125 1 10 C0.01 10.33 -0.98 10.66 -2 11 C-6 4.25 -6 4.25 -6 2 C-3 0 -3 0 0 0 Z " fill="#7F7F7F" transform="translate(308,89)"/>
<path d="M0 0 C1.32 0.66 2.64 1.32 4 2 C4 6 4 6 2.25 7.8125 C0 9 0 9 -2.125 8.9375 C-4.54027102 7.72986449 -5.0433747 6.47128202 -6 4 C-4.02 2.68 -2.04 1.36 0 0 Z " fill="#7F7F7F" transform="translate(79,35)"/>
<path d="M0 0 C0.53625 0.2475 1.0725 0.495 1.625 0.75 C1.955 2.07 2.285 3.39 2.625 4.75 C-0.1875 6.8125 -0.1875 6.8125 -3.375 8.75 C-6.375 7.75 -6.375 7.75 -7.5625 5.6875 C-7.830625 5.048125 -8.09875 4.40875 -8.375 3.75 C-2.95961538 -0.31153846 -2.95961538 -0.31153846 0 0 Z " fill="#7E7E7E" transform="translate(94.375,27.25)"/>
<path d="M0 0 C3.3 0 6.6 0 10 0 C10 1.65 10 3.3 10 5 C9 6 9 6 6.93359375 6.09765625 C6.10988281 6.08605469 5.28617188 6.07445312 4.4375 6.0625 C3.61121094 6.05347656 2.78492188 6.04445313 1.93359375 6.03515625 C1.29550781 6.02355469 0.65742188 6.01195312 0 6 C0 4.02 0 2.04 0 0 Z " fill="#7F7F7F" transform="translate(177,9)"/>
<path d="M0 0 C2.97 0.33 5.94 0.66 9 1 C9.042721 2.66611905 9.04063832 4.33382885 9 6 C8.67 6.33 8.34 6.66 8 7 C6.47480724 6.91062197 4.95318071 6.75462854 3.4375 6.5625 C2.19806641 6.40974609 2.19806641 6.40974609 0.93359375 6.25390625 C0.29550781 6.17011719 -0.34257813 6.08632813 -1 6 C-0.67 4.02 -0.34 2.04 0 0 Z " fill="#7E7E7E" transform="translate(128,316)"/>
<path d="M0 0 C3.34373475 0.55728913 6.03312999 1.35173889 9 3 C8.34 4.98 7.68 6.96 7 9 C1.25 7.125 1.25 7.125 -1 6 C-0.67 4.02 -0.34 2.04 0 0 Z " fill="#7E7E7E" transform="translate(99,305)"/>
<path d="M0 0 C0.8353125 0.37125 0.8353125 0.37125 1.6875 0.75 C2.0175 2.07 2.3475 3.39 2.6875 4.75 C0.4375 6.8125 0.4375 6.8125 -2.3125 8.75 C-4.625 8.5 -4.625 8.5 -6.3125 7.75 C-6.6425 6.43 -6.9725 5.11 -7.3125 3.75 C-2.88173077 -0.31153846 -2.88173077 -0.31153846 0 0 Z " fill="#7E7E7E" transform="translate(254.3125,295.25)"/>
<path d="M0 0 C2.31 1.65 4.62 3.3 7 5 C6.34 6.65 5.68 8.3 5 10 C1.64404172 9.40072174 -0.37801226 8.15377564 -3 6 C-1.125 1.125 -1.125 1.125 0 0 Z " fill="#7D7D7D" transform="translate(74,288)"/>
<path d="M0 0 C1.32 0.33 2.64 0.66 4 1 C4.75 2.6875 4.75 2.6875 5 5 C3.0625 7.75 3.0625 7.75 1 10 C-1.475 9.01 -1.475 9.01 -4 8 C-3.40072174 4.64404172 -2.15377564 2.62198774 0 0 Z " fill="#7D7D7D" transform="translate(296,252)"/>
<path d="M0 0 C2.97 0.495 2.97 0.495 6 1 C5.67 3.64 5.34 6.28 5 9 C2 10 2 10 -2 9 C-1.34 6.03 -0.68 3.06 0 0 Z " fill="#7E7E7E" transform="translate(319,195)"/>
<path d="M0 0 C1.49821059 3.37097383 2 5.20442119 2 9 C0.35 9.66 -1.3 10.32 -3 11 C-6.03553801 5.65745311 -6.03553801 5.65745311 -5.875 2.6875 C-4.54758957 0.12749417 -2.73831912 0 0 0 Z " fill="#7E7E7E" transform="translate(315,103)"/>
<path d="M0 0 C3.23356015 1.21258505 4.00856305 2.01284458 6 5 C5.625 7.1875 5.625 7.1875 5 9 C3.68 9.33 2.36 9.66 1 10 C-1.0625 7.75 -1.0625 7.75 -3 5 C-2.875 2.75 -2.875 2.75 -2 1 C-1.34 0.67 -0.68 0.34 0 0 Z " fill="#7D7D7D" transform="translate(297,76)"/>
<path d="M0 0 C1.65 0.99 3.3 1.98 5 3 C3.8141763 6.37503669 2.72426311 8.64722731 0 11 C-3.875 9.25 -3.875 9.25 -5 7 C-3.35 4.69 -1.7 2.38 0 0 Z " fill="#7D7D7D" transform="translate(45,66)"/>
<path d="M0 0 C1.32 0.66 2.64 1.32 4 2 C4 6 4 6 2 8.25 C1.34 8.8275 0.68 9.405 0 10 C-1.32 9.34 -2.64 8.68 -4 8 C-4 4 -4 4 -2 1.75 C-1.01 0.88375 -1.01 0.88375 0 0 Z " fill="#7C7C7C" transform="translate(55,55)"/>
<path d="M0 0 C1.65 1.65 3.3 3.3 5 5 C2.03 7.475 2.03 7.475 -1 10 C-2.32 9.34 -3.64 8.68 -5 8 C-5 6.68 -5 5.36 -5 4 C-2.5 1.75 -2.5 1.75 0 0 Z " fill="#7D7D7D" transform="translate(67,44)"/>
<path d="M0 0 C5.72173913 3.40869565 5.72173913 3.40869565 7 6.125 C7 6.74375 7 7.3625 7 8 C6.34 8.66 5.68 9.32 5 10 C1.63060567 9.66306057 -0.42910583 8.11180592 -3 6 C-1.125 1.125 -1.125 1.125 0 0 Z " fill="#7D7D7D" transform="translate(265,41)"/>
<path d="M0 0 C2.64 0.99 5.28 1.98 8 3 C7.67 4.98 7.34 6.96 7 9 C3.65626525 8.44271087 0.96687001 7.64826111 -2 6 C-1.34 4.02 -0.68 2.04 0 0 Z " fill="#7D7D7D" transform="translate(224,18)"/>
<path d="M0 0 C4.455 0.99 4.455 0.99 9 2 C8.67 3.98 8.34 5.96 8 8 C3.545 7.01 3.545 7.01 -1 6 C-0.67 4.02 -0.34 2.04 0 0 Z " fill="#7D7D7D" transform="translate(113,311)"/>
<path d="M0 0 C1.32 0.66 2.64 1.32 4 2 C4 6.26826873 3.62386487 6.93882432 1 10 C-0.875 9.6875 -0.875 9.6875 -3 9 C-3.66 8.01 -4.32 7.02 -5 6 C-3.35 4.02 -1.7 2.04 0 0 Z " fill="#7C7C7C" transform="translate(287,264)"/>
<path d="M0 0 C2.97 0.495 2.97 0.495 6 1 C5.125 7.75 5.125 7.75 4 10 C1.03 9.505 1.03 9.505 -2 9 C-1.34 6.03 -0.68 3.06 0 0 Z " fill="#7D7D7D" transform="translate(315,210)"/>
<path d="M0 0 C3.37462715 0.54723683 5.08235 1.0549 8 3 C7.625 5.4375 7.625 5.4375 7 8 C6.01 8.495 6.01 8.495 5 9 C2.5249829 7.88568235 0.32116581 6.41849022 -2 5 C-1.34 3.35 -0.68 1.7 0 0 Z " fill="#7C7C7C" transform="translate(238,25)"/>
<path d="M0 0 C2.64 0.33 5.28 0.66 8 1 C8.38218767 2.65614657 8.71395102 4.32457024 9 6 C8.67 6.33 8.34 6.66 8 7 C6.47480724 6.91062197 4.95318071 6.75462854 3.4375 6.5625 C2.19806641 6.40974609 2.19806641 6.40974609 0.93359375 6.25390625 C0.29550781 6.17011719 -0.34257812 6.08632813 -1 6 C-0.67 4.02 -0.34 2.04 0 0 Z " fill="#7F7F7F" transform="translate(208,14)"/>
<path d="M0 0 C2.97 0.33 5.94 0.66 9 1 C9 2.98 9 4.96 9 7 C6.03 6.67 3.06 6.34 0 6 C0 4.02 0 2.04 0 0 Z " fill="#7B7B7B" transform="translate(143,319)"/>
<path d="M0 0 C1.32 0.66 2.64 1.32 4 2 C4 6 4 6 2.25 7.8125 C0 9 0 9 -2.25 8.6875 C-2.8275 8.460625 -3.405 8.23375 -4 8 C-4.33 6.68 -4.66 5.36 -5 4 C-3.35 2.68 -1.7 1.36 0 0 Z " fill="#7C7C7C" transform="translate(265,286)"/>
<path d="M0 0 C1.98 0 3.96 0 6 0 C6.125 6.75 6.125 6.75 5 9 C3.02 9 1.04 9 -1 9 C-0.67 6.03 -0.34 3.06 0 0 Z " fill="#7B7B7B" transform="translate(321,180)"/>
<path d="M0 0 C0 1.65 0 3.3 0 5 C-2.64 5.66 -5.28 6.32 -8 7 C-8.66 5.02 -9.32 3.04 -10 1 C-3.71428571 -1.42857143 -3.71428571 -1.42857143 0 0 Z " fill="#7C7C7C" transform="translate(125,16)"/>
<path d="M0 0 C1.98 0 3.96 0 6 0 C6 2.97 6 5.94 6 9 C4.02 9 2.04 9 0 9 C0 6.03 0 3.06 0 0 Z " fill="#797979" transform="translate(321,149)"/>
<path d="M0 0 C2.97 0 5.94 0 9 0 C9 1.98 9 3.96 9 6 C6.03 6 3.06 6 0 6 C0 4.02 0 2.04 0 0 Z " fill="#7A7A7A" transform="translate(162,8)"/>
</svg>
